<?xml version="1.0" standalone="no"?>
<!DOCTYPE svg PUBLIC "-//W3C//DTD SVG 20010904//EN"
 "http://www.w3.org/TR/2001/REC-SVG-20010904/DTD/svg10.dtd">
<svg version="1.0" xmlns="http://www.w3.org/2000/svg"
 width="494.000000pt" height="440.000000pt" viewBox="0 0 494.000000 440.000000"
 preserveAspectRatio="xMidYMid meet">

<g transform="translate(0.000000,440.000000) scale(0.100000,-0.100000)"
fill="#000000" stroke="none">
<path d="M2892 3848 c3 -7 15 -15 29 -18 13 -3 35 -22 47 -42 23 -35 24 -35
53 -21 20 10 42 13 65 9 26 -5 34 -3 34 7 0 20 -66 50 -90 42 -13 -4 -30 1
-46 14 -29 23 -99 30 -92 9z"/>
<path d="M2630 3732 c0 -4 15 -12 32 -17 20 -6 41 -23 53 -42 14 -22 25 -30
35 -25 8 3 39 7 68 7 33 0 52 4 52 12 0 21 -43 43 -85 43 -22 0 -49 7 -59 15
-21 16 -96 21 -96 7z"/>
<path d="M3040 3623 c-10 -4 -4 -10 20 -18 22 -7 44 -25 59 -48 23 -35 24 -35
47 -20 17 11 37 14 64 10 29 -4 40 -1 40 8 0 18 -67 47 -91 40 -13 -4 -27 -1
-38 10 -20 17 -77 28 -101 18z"/>
<path d="M4496 3421 l-67 -48 -142 -7 c-125 -6 -145 -10 -165 -28 -12 -12 -19
-25 -15 -28 5 -4 41 -17 81 -30 39 -12 72 -26 72 -30 0 -12 -73 -68 -104 -80
-15 -5 -48 -10 -73 -10 -41 0 -103 -25 -103 -41 0 -10 102 -39 159 -45 44 -5
50 -2 124 52 43 31 80 54 83 52 3 -3 11 -53 18 -112 7 -58 15 -109 18 -112 12
-11 50 18 63 49 7 18 23 97 36 175 l23 144 72 61 c40 34 73 68 73 75 1 8 -14
12 -43 12 -36 0 -54 -8 -110 -49z"/>
<path d="M1770 3431 c0 -5 7 -14 15 -21 21 -18 19 -40 -4 -40 -37 0 -30 -17
34 -80 36 -36 65 -68 65 -72 0 -4 -12 -8 -27 -8 -26 0 -26 0 -7 -21 19 -22 19
-22 -4 -10 -72 38 -188 52 -251 30 -39 -14 -40 -28 -1 -35 33 -7 37 -19 15
-44 -15 -16 -12 -18 27 -28 24 -6 70 -14 102 -18 58 -7 59 -7 38 -24 -15 -13
-18 -20 -9 -29 8 -8 6 -11 -8 -11 -38 0 -121 -48 -162 -93 -59 -64 -56 -79 10
-52 14 6 17 2 17 -19 0 -14 5 -26 10 -26 6 0 46 18 90 40 74 37 80 39 80 20 0
-29 15 -25 90 25 37 25 70 45 72 45 3 0 8 -71 12 -157 8 -209 46 -383 120
-552 20 -47 33 -88 29 -92 -5 -4 -62 -19 -128 -34 -317 -71 -573 -95 -806 -77
-190 15 -302 53 -395 135 -86 75 -124 161 -124 281 0 140 55 277 187 461 21
29 35 101 22 107 -13 6 -204 -180 -297 -287 -215 -251 -312 -446 -312 -630 0
-138 53 -235 169 -312 316 -208 1013 -147 1837 161 573 214 1171 564 1602 939
105 91 127 122 50 70 -39 -26 -87 -56 -266 -162 -86 -50 -284 -157 -402 -217
-197 -98 -447 -210 -455 -203 -2 2 5 40 15 84 10 44 22 117 25 163 4 45 12 82
17 82 5 0 23 -10 40 -22 22 -16 32 -19 35 -11 3 9 16 7 46 -8 27 -14 42 -18
45 -10 2 6 12 11 23 11 10 0 19 4 19 8 0 12 -38 45 -83 71 -20 13 -35 26 -32
31 3 4 25 11 49 14 34 5 44 11 39 22 -3 7 0 14 6 14 6 0 11 7 11 16 0 15 -10
16 -75 11 -86 -6 -99 2 -62 41 26 28 34 82 12 82 -26 0 -80 -47 -102 -89 -13
-25 -25 -46 -27 -48 -1 -2 -15 15 -31 36 -37 55 -152 111 -125 62 7 -14 6 -21
-3 -25 -12 -5 -1 -17 47 -51 29 -21 9 -35 -53 -35 -61 0 -109 -21 -77 -33 9
-4 16 -13 16 -22 0 -11 6 -14 24 -9 32 8 66 -3 66 -22 0 -8 -4 -14 -9 -14 -17
0 -81 -67 -81 -85 0 -11 5 -15 15 -11 8 3 15 1 15 -4 0 -17 20 -11 55 15 20
16 34 22 37 14 2 -6 22 4 47 25 23 20 45 36 48 36 9 0 -7 -131 -23 -190 -31
-111 -64 -187 -87 -198 -48 -26 -346 -127 -403 -138 -30 -5 -31 -5 -76 93 -76
163 -128 347 -154 536 -8 60 -11 115 -6 123 6 11 28 -4 95 -61 80 -69 87 -73
87 -50 0 14 3 25 6 25 8 0 128 -93 132 -102 8 -19 32 -6 32 17 0 29 2 30 40
10 39 -20 40 -4 2 56 -30 47 -89 99 -135 120 -20 9 -24 15 -15 20 10 6 8 12
-7 23 -18 14 -12 15 77 16 103 0 122 8 93 40 -17 19 -16 20 24 26 45 7 45 16
0 39 -65 34 -164 38 -244 9 -16 -6 -18 -5 -7 7 17 19 15 26 -10 33 -20 5 -14
12 55 62 75 55 92 74 63 74 -26 0 -29 21 -5 46 30 32 18 41 -39 25 -93 -24
-180 -99 -235 -202 l-19 -33 -28 68 c-35 82 -88 149 -149 187 -43 28 -91 38
-91 20z"/>
<path d="M3673 956 c-91 -29 -133 -81 -133 -166 0 -45 4 -55 40 -94 30 -32 64
-54 128 -81 118 -50 132 -60 132 -93 0 -39 -17 -52 -68 -52 -57 0 -78 12 -92
55 l-12 35 -68 0 c-38 0 -72 -5 -75 -11 -13 -20 6 -80 38 -116 50 -57 117 -83
213 -83 66 0 89 4 131 25 70 35 88 64 88 145 0 103 -42 146 -200 205 -72 27
-105 49 -105 71 0 23 43 54 75 54 34 0 75 -24 75 -44 0 -20 23 -26 91 -26 68
0 77 10 59 64 -15 46 -80 101 -135 115 -57 14 -129 13 -182 -3z"/>
<path d="M330 900 l0 -59 88 -3 87 -3 5 -240 5 -240 72 -3 73 -3 2 243 3 243
88 3 87 3 0 59 0 60 -255 0 -255 0 0 -60z"/>
<path d="M932 658 l3 -303 69 -3 c49 -2 72 1 77 10 5 7 9 55 9 106 l0 92 34 0
c34 0 36 -2 87 -105 l53 -105 78 0 c51 0 78 4 78 11 0 6 -26 62 -57 124 l-57
112 41 39 c91 87 77 234 -28 294 -41 23 -54 25 -217 28 l-172 4 2 -304z m298
157 c26 -24 27 -78 0 -105 -16 -16 -33 -20 -80 -20 l-60 0 0 76 0 76 60 -4
c39 -3 66 -11 80 -23z"/>
<path d="M1530 655 l0 -305 75 0 75 0 0 305 0 305 -75 0 -75 0 0 -305z"/>
<path d="M1812 658 l3 -303 72 -3 72 -3 3 98 3 98 89 8 c103 9 171 39 208 89
19 28 23 45 23 109 0 66 -4 81 -28 117 -49 74 -86 86 -280 90 l-167 4 2 -304z
m299 155 c27 -27 29 -85 4 -113 -16 -18 -28 -20 -84 -18 l-66 3 -3 64 c-4 92
-3 94 69 89 43 -3 66 -10 80 -25z"/>
<path d="M2400 655 l0 -305 75 0 75 0 0 172 c0 151 2 170 15 158 8 -8 54 -85
103 -170 l89 -155 77 -3 76 -3 0 306 0 305 -75 0 -75 0 0 -165 c0 -107 -4
-165 -10 -165 -6 0 -14 8 -18 18 -4 9 -45 84 -91 165 l-84 147 -79 0 -78 0 0
-305z"/>
<path d="M3030 655 l0 -305 210 0 210 0 0 65 0 64 -132 3 -133 3 -3 54 c-2 37
1 57 10 62 7 5 59 9 116 9 l102 0 0 54 c0 40 -4 55 -16 60 -9 3 -61 6 -115 6
l-100 0 3 53 3 52 133 3 132 3 0 59 0 60 -210 0 -210 0 0 -305z"/>
<path d="M4080 900 l0 -59 83 -3 82 -3 5 -240 5 -240 75 0 75 0 5 240 5 240
85 5 85 5 3 58 3 57 -256 0 -255 0 0 -60z"/>
</g>
</svg>
